<?xml version="1.0" encoding="utf-8"?>
<!-- Generator: Adobe Illustrator 23.1.0, SVG Export Plug-In . SVG Version: 6.00 Build 0)  -->
<svg version="1.1" id="Capa_2" xmlns="http://www.w3.org/2000/svg" xmlns:xlink="http://www.w3.org/1999/xlink" x="0px" y="0px"
	 viewBox="0 0 1527.4 326" style="enable-background:new 0 0 1527.4 326;" xml:space="preserve">
<style type="text/css">
	.st0{fill:#3693D6;}
	.st1{fill:#7F7F7F;}
	.st2{fill:#54BFD8;}
	.st3{fill:url(#SVGID_1_);}
	.st4{fill:#FFFFFF;}
</style>
<g>
	<g>
		<g>
			<path class="st0" d="M112.5,39.7L90.2,53c-4.2-7.3-8.2-12-12-14.2c-4-2.5-9-3.8-15.3-3.8c-7.7,0-14,2.2-19.1,6.5
				c-5.1,4.3-7.6,9.6-7.6,16.1c0,8.9,6.6,16.1,19.9,21.6l18.2,7.5c14.8,6,25.7,13.3,32.6,22s10.3,19.3,10.3,31.8
				c0,16.8-5.6,30.7-16.8,41.7c-11.3,11.1-25.3,16.6-42.1,16.6c-15.9,0-29-4.7-39.3-14.1C8.9,175.2,2.5,161.9,0,144.9l28-6.2
				c1.3,10.7,3.5,18.2,6.6,22.3c5.7,7.9,14,11.8,24.9,11.8c8.6,0,15.8-2.9,21.4-8.6c5.7-5.8,8.5-13.1,8.5-21.9
				c0-3.6-0.5-6.8-1.5-9.8c-1-3-2.5-5.7-4.6-8.2c-2.1-2.5-4.8-4.8-8.1-7c-3.3-2.2-7.3-4.2-11.8-6.2l-17.7-7.3
				C20.7,93.2,8.2,77.7,8.2,57.3c0-13.7,5.3-25.2,15.8-34.5c10.5-9.3,23.6-14,39.2-14C84.2,8.9,100.7,19.2,112.5,39.7z"/>
			<path class="st0" d="M285.8,22.3V55c-16-13.3-32.5-20-49.5-20c-18.8,0-34.6,6.8-47.5,20.3c-13,13.4-19.4,29.9-19.4,49.3
				c0,19.2,6.5,35.4,19.4,48.6c13,13.2,28.8,19.8,47.6,19.8c9.7,0,18-1.6,24.8-4.7c3.8-1.6,7.7-3.7,11.8-6.4
				c4.1-2.7,8.4-5.9,12.9-9.7v33.3c-15.8,8.9-32.4,13.4-49.8,13.4c-26.1,0-48.5-9.1-66.9-27.4c-18.4-18.4-27.6-40.6-27.6-66.6
				c0-23.3,7.7-44.1,23.1-62.3c19-22.4,43.5-33.5,73.6-33.5C254.6,8.9,270.4,13.3,285.8,22.3z"/>
			<path class="st1" d="M345.6,93.9l16.5,19.9l0.5-0.6c1.8-1.9,3.5-3.8,5-5.7c1.6-1.9,3.1-3.7,4.6-5.6l9,9.2
				c-1.1,1.6-2.6,3.4-4.4,5.5c-1.8,2.1-3.9,4.5-6.4,7.2l16.9,20.9h-17.2l-9.1-11.2c-8.4,8.6-17.1,13-26.1,13c-8.1,0-15-2.6-20.6-7.8
				c-5.5-5.2-8.3-11.6-8.3-19.3c0-9.1,4.4-16.7,13.2-22.7l6-4.1c0.1,0,0.2-0.1,0.4-0.3c0.2-0.2,0.5-0.4,0.8-0.7
				c-6-6.4-9.1-12.8-9.1-19c0-6.2,2-11.2,6-15c4.1-3.9,9.4-5.8,15.9-5.8c6.3,0,11.5,1.9,15.6,5.6c4.1,3.8,6.2,8.5,6.2,14.2
				c0,3.9-1.1,7.5-3.4,10.7C355.4,85.6,351.4,89.5,345.6,93.9z M334.6,101.7l-0.8,0.5c-5.6,3.9-9.5,7-11.6,9.4c-2,2.4-3,4.9-3,7.5
				c0,3.8,1.5,7.3,4.6,10.4c3.2,3,6.6,4.6,10.4,4.6c5.3,0,11.5-3.5,18.4-10.5L334.6,101.7z M337.6,84.2l1.1-0.8
				c1.9-1.5,3.5-2.7,4.8-3.8c1.3-1.1,2.2-2,2.7-2.8c1.2-1.5,1.8-3.3,1.8-5.4c0-2.4-0.8-4.4-2.4-5.9c-1.6-1.5-3.8-2.3-6.5-2.3
				c-2.5,0-4.6,0.8-6.3,2.3c-1.7,1.5-2.5,3.3-2.5,5.6c0,2.7,1.1,5.3,3.2,7.9l3.4,4.1C337,83.5,337.2,83.8,337.6,84.2z"/>
			<path class="st2" d="M409.3,195.4V12.4h38.4c18.4,0,32.9,1.8,43.6,5.4c11.5,3.6,21.8,9.6,31.2,18.1
				c18.9,17.2,28.3,39.8,28.3,67.9c0,28.1-9.8,50.9-29.5,68.2c-9.9,8.7-20.2,14.7-31,18.1c-10.1,3.4-24.4,5.1-43,5.1H409.3z
				 M436.9,169.4h12.4c12.4,0,22.7-1.3,30.9-3.9c8.2-2.8,15.6-7.1,22.3-13.2c13.6-12.4,20.4-28.6,20.4-48.5
				c0-20.1-6.7-36.3-20.1-48.8c-12.1-11.1-29.9-16.7-53.4-16.7h-12.4V169.4z"/>
			<path class="st2" d="M686.4,38.4H613v44h71.2v25.9H613v61.1h73.3v25.9H585.4V12.4h100.9V38.4z"/>
			<path class="st2" d="M816.7,100.1h75.6v6c0,13.7-1.6,25.9-4.9,36.5c-3.2,9.8-8.5,19-16,27.5c-17,19.1-38.6,28.7-64.8,28.7
				c-25.6,0-47.5-9.2-65.8-27.7c-18.2-18.6-27.4-40.8-27.4-66.8c0-26.5,9.3-49,27.8-67.5c18.6-18.6,41.1-27.8,67.8-27.8
				c14.3,0,27.6,2.9,40,8.8c11.8,5.8,23.5,15.3,34.9,28.4l-19.7,18.8c-15-20-33.3-30-54.9-30c-19.4,0-35.6,6.7-48.7,20
				c-13.1,13.1-19.7,29.5-19.7,49.3c0,20.4,7.3,37.2,21.9,50.4c13.7,12.2,28.5,18.4,44.4,18.4c13.6,0,25.8-4.6,36.6-13.7
				c10.8-9.2,16.9-20.3,18.1-33.2h-45.6V100.1z"/>
			<path class="st2" d="M1027.9,38.4h-73.3v44h71.2v25.9h-71.2v61.1h73.3v25.9H927V12.4h100.9V38.4z"/>
			<path class="st2" d="M1064.2,195.4V0l133.4,139.6V12.4h27.6v194.1L1091.8,67.3v128.1H1064.2z"/>
			<path class="st2" d="M1369.9,38.4h-73.3v44h71.2v25.9h-71.2v61.1h73.3v25.9H1269V12.4h100.9V38.4z"/>
			<path class="st2" d="M1468.1,117.4l56.6,78H1491l-52.2-74.9h-5v74.9h-27.6V12.4h32.3c24.2,0,41.6,4.5,52.4,13.6
				c11.8,10.1,17.8,23.5,17.8,40c0,13-3.7,24.1-11.1,33.4C1490.1,108.8,1480.3,114.8,1468.1,117.4z M1433.8,96.4h8.8
				c26.1,0,39.2-10,39.2-30c0-18.7-12.7-28.1-38.1-28.1h-9.8V96.4z"/>
		</g>
		<linearGradient id="SVGID_1_" gradientUnits="userSpaceOnUse" x1="4.1185" y1="278.5227" x2="1527.3521" y2="278.5227">
			<stop  offset="0" style="stop-color:#3693D6"/>
			<stop  offset="0.25" style="stop-color:#54BFD8"/>
		</linearGradient>
		<rect x="4.1" y="231" class="st3" width="1523.2" height="95"/>
	</g>
	<g>
		<path class="st4" d="M364.1,266.2l8.1,17.6l8.7-20.4l8.8,20.4l8-17.6h8l-16.1,33.1l-8.6-19.8l-8.7,19.8l-16.1-33.1H364.1z"/>
		<path class="st4" d="M450.3,283.3h-22.1c0.2,2.5,1,4.5,2.5,6c1.5,1.5,3.3,2.2,5.6,2.2c1.8,0,3.2-0.4,4.4-1.3
			c1.1-0.8,2.4-2.4,3.9-4.7l6,3.3c-0.9,1.6-1.9,2.9-2.9,4.1c-1,1.1-2.1,2.1-3.3,2.8c-1.2,0.7-2.5,1.3-3.8,1.6
			c-1.4,0.3-2.9,0.5-4.5,0.5c-4.6,0-8.3-1.5-11.1-4.4c-2.8-3-4.2-6.9-4.2-11.8c0-4.9,1.3-8.8,4-11.8c2.7-3,6.3-4.5,10.8-4.5
			c4.5,0,8.1,1.4,10.7,4.3c2.6,2.9,3.9,6.8,3.9,11.9L450.3,283.3z M443,277.5c-1-3.8-3.4-5.7-7.2-5.7c-0.9,0-1.7,0.1-2.4,0.4
			c-0.8,0.3-1.4,0.6-2.1,1.1c-0.6,0.5-1.2,1.1-1.6,1.8s-0.8,1.5-1,2.4H443z"/>
		<path class="st4" d="M526.6,266.2h7.1V297h-7.1v-3.2c-2.9,2.7-6.1,4.1-9.4,4.1c-4.3,0-7.8-1.5-10.6-4.6c-2.8-3.1-4.1-7.1-4.1-11.8
			c0-4.6,1.4-8.5,4.1-11.5c2.8-3.1,6.2-4.6,10.4-4.6c3.6,0,6.8,1.5,9.6,4.4V266.2z M509.7,281.5c0,2.9,0.8,5.3,2.4,7.2
			c1.6,1.9,3.7,2.8,6.1,2.8c2.6,0,4.8-0.9,6.4-2.7c1.6-1.9,2.4-4.3,2.4-7.1c0-2.9-0.8-5.3-2.4-7.1c-1.6-1.8-3.7-2.7-6.3-2.7
			c-2.4,0-4.5,0.9-6.1,2.8C510.5,276.4,509.7,278.7,509.7,281.5z"/>
		<path class="st4" d="M555.6,266.2h7.1v2.7c1.3-1.4,2.5-2.3,3.5-2.8c1-0.5,2.3-0.8,3.7-0.8c1.9,0,3.8,0.6,5.9,1.8l-3.3,6.5
			c-1.3-1-2.7-1.5-3.9-1.5c-3.9,0-5.8,2.9-5.8,8.8v16h-7.1V266.2z"/>
		<path class="st4" d="M620.4,283.3h-22.1c0.2,2.5,1,4.5,2.5,6c1.5,1.5,3.3,2.2,5.6,2.2c1.8,0,3.2-0.4,4.4-1.3
			c1.1-0.8,2.4-2.4,3.9-4.7l6,3.3c-0.9,1.6-1.9,2.9-2.9,4.1c-1,1.1-2.1,2.1-3.3,2.8c-1.2,0.7-2.5,1.3-3.8,1.6
			c-1.4,0.3-2.9,0.5-4.5,0.5c-4.6,0-8.3-1.5-11.1-4.4c-2.8-3-4.2-6.9-4.2-11.8c0-4.9,1.3-8.8,4-11.8c2.7-3,6.3-4.5,10.8-4.5
			c4.5,0,8.1,1.4,10.7,4.3c2.6,2.9,3.9,6.8,3.9,11.9L620.4,283.3z M613.1,277.5c-1-3.8-3.4-5.7-7.2-5.7c-0.9,0-1.7,0.1-2.4,0.4
			c-0.8,0.3-1.4,0.6-2.1,1.1c-0.6,0.5-1.2,1.1-1.6,1.8c-0.4,0.7-0.8,1.5-1,2.4H613.1z"/>
		<path class="st4" d="M683.7,291.3l-13.8-25.1h8.2l9.4,17.7l8.8-17.7h8l-24.5,47.5h-8.1L683.7,291.3z"/>
		<path class="st4" d="M719.4,281.4c0-4.4,1.6-8.2,4.8-11.3c3.2-3.1,7.1-4.7,11.6-4.7c4.6,0,8.5,1.6,11.7,4.7
			c3.2,3.1,4.7,7,4.7,11.6c0,4.6-1.6,8.5-4.8,11.6c-3.2,3.1-7.1,4.6-11.8,4.6c-4.6,0-8.5-1.6-11.6-4.7
			C720.9,290,719.4,286.1,719.4,281.4z M726.7,281.5c0,3.1,0.8,5.5,2.5,7.3c1.7,1.8,3.9,2.7,6.7,2.7c2.8,0,5-0.9,6.7-2.7
			c1.7-1.8,2.5-4.2,2.5-7.2c0-3-0.8-5.4-2.5-7.2c-1.7-1.8-3.9-2.7-6.7-2.7c-2.7,0-4.9,0.9-6.6,2.7
			C727.5,276.3,726.7,278.6,726.7,281.5z"/>
		<path class="st4" d="M779.8,266.2v17.7c0,5.1,2,7.6,6,7.6c4,0,6-2.5,6-7.6v-17.7h7.1V284c0,2.5-0.3,4.6-0.9,6.4
			c-0.6,1.6-1.6,3-3.1,4.3c-2.4,2.1-5.5,3.1-9.2,3.1c-3.7,0-6.7-1-9.1-3.1c-1.5-1.3-2.5-2.7-3.1-4.3c-0.6-1.4-0.9-3.6-0.9-6.4v-17.8
			H779.8z"/>
		<path class="st4" d="M820.9,266.2h7.1v2.7c1.3-1.4,2.5-2.3,3.5-2.8c1-0.5,2.3-0.8,3.7-0.8c1.9,0,3.8,0.6,5.9,1.8l-3.3,6.5
			c-1.3-1-2.7-1.5-3.9-1.5c-3.9,0-5.8,2.9-5.8,8.8v16h-7.1V266.2z"/>
		<path class="st4" d="M890.9,266.2h7.1v2.7c1.3-1.4,2.5-2.3,3.5-2.8c1-0.5,2.3-0.8,3.7-0.8c1.9,0,3.8,0.6,5.9,1.8l-3.3,6.5
			c-1.3-1-2.7-1.5-3.9-1.5c-3.9,0-5.8,2.9-5.8,8.8v16h-7.1V266.2z"/>
		<path class="st4" d="M955.6,283.3h-22.1c0.2,2.5,1,4.5,2.5,6c1.5,1.5,3.3,2.2,5.6,2.2c1.8,0,3.2-0.4,4.4-1.3
			c1.1-0.8,2.4-2.4,3.9-4.7l6,3.3c-0.9,1.6-1.9,2.9-2.9,4.1c-1,1.1-2.1,2.1-3.3,2.8c-1.2,0.7-2.5,1.3-3.8,1.6
			c-1.4,0.3-2.9,0.5-4.5,0.5c-4.6,0-8.3-1.5-11.1-4.4c-2.8-3-4.2-6.9-4.2-11.8c0-4.9,1.3-8.8,4-11.8c2.7-3,6.3-4.5,10.8-4.5
			c4.5,0,8.1,1.4,10.7,4.3c2.6,2.9,3.9,6.8,3.9,11.9L955.6,283.3z M948.3,277.5c-1-3.8-3.4-5.7-7.2-5.7c-0.9,0-1.7,0.1-2.4,0.4
			c-0.8,0.3-1.4,0.6-2.1,1.1c-0.6,0.5-1.2,1.1-1.6,1.8c-0.4,0.7-0.8,1.5-1,2.4H948.3z"/>
		<path class="st4" d="M976.3,266.2h7.1v2.8c1.4-1.4,2.5-2.4,3.5-2.9c1-0.5,2.3-0.8,3.9-0.8c3.5,0,6.2,1.5,8.2,4.5
			c2.2-3,5.3-4.5,9.1-4.5c6.9,0,10.4,4.2,10.4,12.6v19h-7.1v-17.1c0-2.9-0.4-5-1.1-6.3c-0.7-1.2-1.9-1.9-3.6-1.9
			c-2,0-3.4,0.7-4.3,2.2c-0.9,1.5-1.3,3.8-1.3,7.1V297h-7.1v-17c0-5.5-1.6-8.2-4.7-8.2c-2,0-3.5,0.7-4.4,2.2
			c-0.9,1.5-1.4,3.9-1.4,7.1V297h-7.1V266.2z"/>
		<path class="st4" d="M1068.5,283.3h-22.1c0.2,2.5,1,4.5,2.5,6c1.5,1.5,3.3,2.2,5.6,2.2c1.8,0,3.2-0.4,4.4-1.3
			c1.1-0.8,2.4-2.4,3.9-4.7l6,3.3c-0.9,1.6-1.9,2.9-2.9,4.1c-1,1.1-2.1,2.1-3.3,2.8c-1.2,0.7-2.5,1.3-3.8,1.6
			c-1.4,0.3-2.9,0.5-4.5,0.5c-4.6,0-8.3-1.5-11.1-4.4c-2.8-3-4.2-6.9-4.2-11.8c0-4.9,1.3-8.8,4-11.8c2.7-3,6.3-4.5,10.8-4.5
			c4.5,0,8.1,1.4,10.7,4.3c2.6,2.9,3.9,6.8,3.9,11.9L1068.5,283.3z M1061.2,277.5c-1-3.8-3.4-5.7-7.2-5.7c-0.9,0-1.7,0.1-2.4,0.4
			c-0.8,0.3-1.4,0.6-2.1,1.1c-0.6,0.5-1.2,1.1-1.6,1.8c-0.4,0.7-0.8,1.5-1,2.4H1061.2z"/>
		<path class="st4" d="M1111.9,243.6h7.1V297h-7.1v-3.2c-2.8,2.7-6,4.1-9.5,4.1c-4.2,0-7.7-1.5-10.5-4.6c-2.8-3.1-4.1-7.1-4.1-11.8
			c0-4.6,1.4-8.4,4.1-11.5c2.7-3.1,6.2-4.6,10.3-4.6c3.6,0,6.8,1.5,9.7,4.4V243.6z M1095,281.5c0,2.9,0.8,5.3,2.4,7.2
			c1.6,1.9,3.7,2.8,6.1,2.8c2.6,0,4.8-0.9,6.4-2.7c1.6-1.9,2.4-4.3,2.4-7.1c0-2.9-0.8-5.3-2.4-7.1c-1.6-1.8-3.7-2.7-6.3-2.7
			c-2.4,0-4.5,0.9-6.1,2.8C1095.8,276.4,1095,278.7,1095,281.5z"/>
		<path class="st4" d="M1150.6,291.3l-13.8-25.1h8.2l9.4,17.7l8.8-17.7h8l-24.5,47.5h-8.1L1150.6,291.3z"/>
	</g>
</g>
</svg>
