<?xml version="1.0" encoding="utf-8"?>
<!-- Generator: Adobe Illustrator 23.1.0, SVG Export Plug-In . SVG Version: 6.00 Build 0)  -->
<svg version="1.1" id="Capa_2" xmlns="http://www.w3.org/2000/svg" xmlns:xlink="http://www.w3.org/1999/xlink" x="0px" y="0px"
	 viewBox="0 0 2407.2 326" style="enable-background:new 0 0 2407.2 326;" xml:space="preserve">
<style type="text/css">
	.st0{fill:#3693D6;}
	.st1{fill:#7F7F7F;}
	.st2{fill:#54BFD8;}
</style>
<g>
	<path class="st0" d="M177.7,62.7l-35.3,20.9c-6.6-11.5-12.9-19-18.9-22.4c-6.2-4-14.3-6-24.1-6c-12.1,0-22.1,3.4-30.1,10.3
		c-8,6.7-12,15.2-12,25.4c0,14.1,10.5,25.4,31.4,34l28.8,11.8c23.4,9.5,40.6,21,51.4,34.7s16.3,30.4,16.3,50.2
		c0,26.6-8.9,48.5-26.6,65.8c-17.8,17.5-40,26.2-66.4,26.2c-25.1,0-45.8-7.4-62.1-22.3C14,276.6,4,255.7,0,228.7l44.1-9.7
		c2,17,5.5,28.7,10.5,35.2c9,12.5,22.1,18.7,39.3,18.7c13.6,0,24.9-4.5,33.9-13.7c9-9.1,13.5-20.6,13.5-34.6
		c0-5.6-0.8-10.8-2.3-15.4c-1.6-4.7-4-9-7.3-12.9c-3.3-3.9-7.6-7.6-12.8-11c-5.2-3.4-11.5-6.7-18.7-9.8l-27.9-11.6
		c-39.5-16.7-59.3-41.1-59.3-73.3c0-21.7,8.3-39.8,24.9-54.4C54.4,21.4,75,14,99.7,14C133,14,159,30.2,177.7,62.7z"/>
	<path class="st0" d="M451.1,35.2v51.6c-25.2-21.1-51.2-31.6-78.2-31.6c-29.7,0-54.7,10.7-75,32c-20.5,21.2-30.7,47.1-30.7,77.8
		c0,30.3,10.2,55.9,30.7,76.7c20.4,20.8,45.5,31.2,75.2,31.2c15.3,0,28.4-2.5,39.1-7.5c6-2.5,12.2-5.9,18.6-10.1
		c6.4-4.2,13.2-9.4,20.3-15.3v52.6c-24.9,14.1-51.1,21.1-78.6,21.1c-41.3,0-76.5-14.4-105.7-43.2c-29.1-29.1-43.6-64.1-43.6-105.1
		c0-36.8,12.2-69.6,36.5-98.4C289.7,31.7,328.4,14,375.9,14C401.9,14,426.9,21.1,451.1,35.2z"/>
	<path class="st1" d="M545.6,148.3l26,31.4l0.8-0.9c2.8-3.1,5.5-6,7.9-9c2.5-2.9,4.9-5.9,7.2-8.9l14.2,14.6c-1.7,2.5-4,5.4-6.9,8.7
		c-2.8,3.3-6.2,7.1-10.1,11.4l26.7,33h-27.1L570,210.9c-13.2,13.7-27,20.5-41.2,20.5c-12.8,0-23.6-4.1-32.5-12.3
		c-8.7-8.2-13.1-18.4-13.1-30.5c0-14.4,6.9-26.4,20.8-35.9l9.4-6.5c0.1-0.1,0.3-0.2,0.7-0.5c0.3-0.2,0.7-0.6,1.3-1
		c-9.5-10.2-14.3-20.2-14.3-30c0-9.7,3.2-17.6,9.5-23.8c6.5-6.1,14.8-9.2,25.1-9.2c9.9,0,18.1,3,24.6,8.9c6.5,5.9,9.7,13.4,9.7,22.4
		c0,6.2-1.8,11.9-5.3,16.9C561.1,135.2,554.7,141.2,545.6,148.3z M528.3,160.5l-1.2,0.8c-8.9,6.2-15,11.1-18.2,14.9
		c-3.2,3.7-4.8,7.7-4.8,11.9c0,6,2.4,11.5,7.2,16.5c5,4.8,10.5,7.2,16.5,7.2c8.4,0,18.1-5.5,29.1-16.6L528.3,160.5z M533,132.9
		l1.8-1.3c3.1-2.3,5.6-4.3,7.6-6c2-1.7,3.4-3.2,4.3-4.3c1.9-2.3,2.8-5.1,2.8-8.5c0-3.8-1.3-6.9-3.8-9.3c-2.6-2.4-6-3.6-10.3-3.6
		c-3.9,0-7.2,1.2-9.9,3.6c-2.7,2.3-4,5.3-4,8.9c0,4.2,1.7,8.4,5,12.5l5.4,6.5C532,131.9,532.4,132.3,533,132.9z"/>
	<path class="st2" d="M646.1,308.4V19.6h60.6c29.1,0,52,2.9,68.8,8.6c18.1,5.6,34.5,15.1,49.2,28.6c29.8,27.2,44.7,62.9,44.7,107.2
		c0,44.4-15.5,80.3-46.6,107.7c-15.6,13.7-31.9,23.3-49,28.6c-16,5.4-38.6,8-67.9,8H646.1z M689.7,267.5h19.6
		c19.6,0,35.8-2.1,48.8-6.2c13-4.4,24.7-11.3,35.2-20.8c21.4-19.6,32.2-45.1,32.2-76.5c0-31.7-10.6-57.4-31.8-77.1
		c-19.1-17.6-47.2-26.4-84.4-26.4h-19.6V267.5z"/>
	<path class="st2" d="M1083.6,60.6H967.8V130h112.4v41H967.8v96.5h115.8v41H924.2V19.6h159.4V60.6z"/>
	<path class="st2" d="M1289.3,158h119.3v9.5c0,21.7-2.6,40.9-7.7,57.6c-5,15.5-13.4,29.9-25.2,43.4c-26.8,30.2-60.9,45.3-102.3,45.3
		c-40.4,0-75-14.6-103.8-43.8c-28.8-29.3-43.2-64.5-43.2-105.5c0-41.9,14.7-77.4,44-106.6c29.3-29.3,65-44,107-44
		c22.6,0,43.6,4.6,63.2,13.8c18.7,9.2,37.1,24.2,55.2,44.9l-31,29.7c-23.7-31.5-52.6-47.3-86.6-47.3c-30.6,0-56.2,10.5-76.9,31.6
		c-20.7,20.7-31,46.6-31,77.8c0,32.2,11.5,58.7,34.6,79.5c21.6,19.3,44.9,29,70.1,29c21.4,0,40.7-7.2,57.8-21.7
		c17.1-14.6,26.6-32,28.6-52.4h-72V158z"/>
	<path class="st2" d="M1622.8,60.6H1507V130h112.4v41H1507v96.5h115.8v41h-159.4V19.6h159.4V60.6z"/>
	<path class="st2" d="M1680,308.4V0l210.6,220.3V19.6h43.6V326l-210.6-219.8v202.2H1680z"/>
	<path class="st2" d="M2162.8,60.6H2047V130h112.4v41H2047v96.5h115.8v41h-159.4V19.6h159.4V60.6z"/>
	<path class="st2" d="M2317.8,185.4l89.4,123.1h-53.3l-82.5-118.2h-7.9v118.2H2220V19.6h51.1c38.2,0,65.7,7.2,82.7,21.5
		c18.7,16,28.1,37,28.1,63.2c0,20.5-5.9,38-17.6,52.7C2352.5,171.8,2337,181.2,2317.8,185.4z M2263.6,152.2h13.8
		c41.3,0,61.9-15.8,61.9-47.3c0-29.6-20.1-44.3-60.2-44.3h-15.5V152.2z"/>
</g>
</svg>
